<?xml version="1.0" encoding="utf-8" standalone="no"?>
<!DOCTYPE svg PUBLIC "-//W3C//DTD SVG 1.1//EN"
  "http://www.w3.org/Graphics/SVG/1.1/DTD/svg11.dtd">
<!-- Created with matplotlib (https://matplotlib.org/) -->
<svg height="345.6pt" version="1.1" viewBox="0 0 460.8 345.6" width="460.8pt" xmlns="http://www.w3.org/2000/svg" xmlns:xlink="http://www.w3.org/1999/xlink">
 <metadata>
  <rdf:RDF xmlns:cc="http://creativecommons.org/ns#" xmlns:dc="http://purl.org/dc/elements/1.1/" xmlns:rdf="http://www.w3.org/1999/02/22-rdf-syntax-ns#">
   <cc:Work>
    <dc:type rdf:resource="http://purl.org/dc/dcmitype/StillImage"/>
    <dc:date>2021-03-28T12:08:46.163601</dc:date>
    <dc:format>image/svg+xml</dc:format>
    <dc:creator>
     <cc:Agent>
      <dc:title>Matplotlib v3.3.4, https://matplotlib.org/</dc:title>
     </cc:Agent>
    </dc:creator>
   </cc:Work>
  </rdf:RDF>
 </metadata>
 <defs>
  <style type="text/css">*{stroke-linecap:butt;stroke-linejoin:round;}</style>
 </defs>
 <g id="figure_1">
  <g id="patch_1">
   <path d="M 0 345.6 
L 460.8 345.6 
L 460.8 0 
L 0 0 
z
" style="fill:#ffffff;"/>
  </g>
  <g id="axes_1">
   <g id="patch_2">
    <path d="M 57.6 307.584 
L 414.72 307.584 
L 414.72 41.472 
L 57.6 41.472 
z
" style="fill:#ffffff;"/>
   </g>
   <g id="PathCollection_1">
    <path clip-path="url(#pdd74cebd3e)" d="M 160.993265 213.061784 
C 164.027116 213.061784 166.937117 211.856422 169.082373 209.711165 
C 171.22763 207.565909 172.432992 204.655908 172.432992 201.622057 
C 172.432992 198.588206 171.22763 195.678206 169.082373 193.532949 
C 166.937117 191.387693 164.027116 190.182331 160.993265 190.182331 
C 157.959415 190.182331 155.049414 191.387693 152.904157 193.532949 
C 150.758901 195.678206 149.553539 198.588206 149.553539 201.622057 
C 149.553539 204.655908 150.758901 207.565909 152.904157 209.711165 
C 155.049414 211.856422 157.959415 213.061784 160.993265 213.061784 
z
" style="fill:#482374;stroke:#482374;"/>
    <path clip-path="url(#pdd74cebd3e)" d="M 398.487273 266.080479 
C 399.89629 266.080479 401.247788 265.520671 402.244113 264.524345 
C 403.240439 263.528019 403.800248 262.176522 403.800248 260.767504 
C 403.800248 259.358487 403.240439 258.006989 402.244113 257.010664 
C 401.247788 256.014338 399.89629 255.454529 398.487273 255.454529 
C 397.078255 255.454529 395.726758 256.014338 394.730432 257.010664 
C 393.734106 258.006989 393.174298 259.358487 393.174298 260.767504 
C 393.174298 262.176522 393.734106 263.528019 394.730432 264.524345 
C 395.726758 265.520671 397.078255 266.080479 398.487273 266.080479 
z
" style="fill:#58c765;stroke:#58c765;"/>
    <path clip-path="url(#pdd74cebd3e)" d="M 366.942117 277.94774 
C 368.316 277.94774 369.633797 277.40189 370.605279 276.430408 
C 371.576761 275.458926 372.122611 274.141128 372.122611 272.767245 
C 372.122611 271.393362 371.576761 270.075564 370.605279 269.104082 
C 369.633797 268.1326 368.316 267.586751 366.942117 267.586751 
C 365.568233 267.586751 364.250436 268.1326 363.278954 269.104082 
C 362.307472 270.075564 361.761622 271.393362 361.761622 272.767245 
C 361.761622 274.141128 362.307472 275.458926 363.278954 276.430408 
C 364.250436 277.40189 365.568233 277.94774 366.942117 277.94774 
z
" style="fill:#fbe723;stroke:#fbe723;"/>
    <path clip-path="url(#pdd74cebd3e)" d="M 318.29633 221.351777 
C 320.203368 221.351777 322.032556 220.594102 323.381036 219.245622 
C 324.729516 217.897142 325.487191 216.067954 325.487191 214.160916 
C 325.487191 212.253877 324.729516 210.424689 323.381036 209.076209 
C 322.032556 207.727729 320.203368 206.970055 318.29633 206.970055 
C 316.389291 206.970055 314.560103 207.727729 313.211623 209.076209 
C 311.863143 210.424689 311.105468 212.253877 311.105468 214.160916 
C 311.105468 216.067954 311.863143 217.897142 313.211623 219.245622 
C 314.560103 220.594102 316.389291 221.351777 318.29633 221.351777 
z
" style="fill:#b8de29;stroke:#b8de29;"/>
    <path clip-path="url(#pdd74cebd3e)" d="M 84.423874 260.723477 
C 86.166944 260.723477 87.838857 260.030947 89.071394 258.798411 
C 90.303931 257.565874 90.99646 255.893961 90.99646 254.150891 
C 90.99646 252.407821 90.303931 250.735908 89.071394 249.503371 
C 87.838857 248.270835 86.166944 247.578306 84.423874 247.578306 
C 82.680804 247.578306 81.008891 248.270835 79.776354 249.503371 
C 78.543818 250.735908 77.851289 252.407821 77.851289 254.150891 
C 77.851289 255.893961 78.543818 257.565874 79.776354 258.798411 
C 81.008891 260.030947 82.680804 260.723477 84.423874 260.723477 
z
" style="fill:#4ec36b;stroke:#4ec36b;"/>
    <path clip-path="url(#pdd74cebd3e)" d="M 73.832727 299.156239 
C 77.435103 299.156239 80.89042 297.725 83.437685 295.177736 
C 85.984949 292.630471 87.416188 289.175154 87.416188 285.572778 
C 87.416188 281.970402 85.984949 278.515085 83.437685 275.967821 
C 80.89042 273.420556 77.435103 271.989317 73.832727 271.989317 
C 70.230351 271.989317 66.775034 273.420556 64.22777 275.967821 
C 61.680505 278.515085 60.249266 281.970402 60.249266 285.572778 
C 60.249266 289.175154 61.680505 292.630471 64.22777 295.177736 
C 66.775034 297.725 70.230351 299.156239 73.832727 299.156239 
z
" style="fill:#440154;stroke:#440154;"/>
    <path clip-path="url(#pdd74cebd3e)" d="M 150.386245 197.045404 
C 152.634854 197.045404 154.791668 196.152022 156.381675 194.562016 
C 157.971681 192.972009 158.865063 190.815195 158.865063 188.566586 
C 158.865063 186.317978 157.971681 184.161163 156.381675 182.571157 
C 154.791668 180.981151 152.634854 180.087769 150.386245 180.087769 
C 148.137637 180.087769 145.980822 180.981151 144.390816 182.571157 
C 142.800809 184.161163 141.907428 186.317978 141.907428 188.566586 
C 141.907428 190.815195 142.800809 192.972009 144.390816 194.562016 
C 145.980822 196.152022 148.137637 197.045404 150.386245 197.045404 
z
" style="fill:#cae11f;stroke:#cae11f;"/>
    <path clip-path="url(#pdd74cebd3e)" d="M 387.177996 259.901445 
C 389.566007 259.901445 391.856534 258.952678 393.545113 257.264099 
C 395.233692 255.575519 396.182459 253.284993 396.182459 250.896982 
C 396.182459 248.50897 395.233692 246.218444 393.545113 244.529865 
C 391.856534 242.841286 389.566007 241.892519 387.177996 241.892519 
C 384.789984 241.892519 382.499458 242.841286 380.810879 244.529865 
C 379.1223 246.218444 378.173533 248.50897 378.173533 250.896982 
C 378.173533 253.284993 379.1223 255.575519 380.810879 257.264099 
C 382.499458 258.952678 384.789984 259.901445 387.177996 259.901445 
z
" style="fill:#86d549;stroke:#86d549;"/>
    <path clip-path="url(#pdd74cebd3e)" d="M 167.210974 185.599544 
C 170.913664 185.599544 174.4652 184.128449 177.083397 181.510252 
C 179.701595 178.892055 181.172689 175.340519 181.172689 171.637829 
C 181.172689 167.935139 179.701595 164.383603 177.083397 161.765406 
C 174.4652 159.147208 170.913664 157.676114 167.210974 157.676114 
C 163.508284 157.676114 159.956748 159.147208 157.338551 161.765406 
C 154.720353 164.383603 153.249259 167.935139 153.249259 171.637829 
C 153.249259 175.340519 154.720353 178.892055 157.338551 181.510252 
C 159.956748 184.128449 163.508284 185.599544 167.210974 185.599544 
z
" style="fill:#20a386;stroke:#20a386;"/>
    <path clip-path="url(#pdd74cebd3e)" d="M 384.863529 260.79547 
C 387.375378 260.79547 389.784687 259.797502 391.560832 258.021356 
C 393.336977 256.245211 394.334946 253.835903 394.334946 251.324054 
C 394.334946 248.812205 393.336977 246.402896 391.560832 244.626751 
C 389.784687 242.850606 387.375378 241.852637 384.863529 241.852637 
C 382.35168 241.852637 379.942372 242.850606 378.166227 244.626751 
C 376.390081 246.402896 375.392113 248.812205 375.392113 251.324054 
C 375.392113 253.835903 376.390081 256.245211 378.166227 258.021356 
C 379.942372 259.797502 382.35168 260.79547 384.863529 260.79547 
z
" style="fill:#3e4c8a;stroke:#3e4c8a;"/>
    <path clip-path="url(#pdd74cebd3e)" d="M 244.966455 139.587816 
C 246.552806 139.587816 248.074399 138.957551 249.196119 137.835831 
C 250.317839 136.714111 250.948103 135.192519 250.948103 133.606167 
C 250.948103 132.019815 250.317839 130.498223 249.196119 129.376503 
C 248.074399 128.254783 246.552806 127.624518 244.966455 127.624518 
C 243.380103 127.624518 241.85851 128.254783 240.73679 129.376503 
C 239.61507 130.498223 238.984806 132.019815 238.984806 133.606167 
C 238.984806 135.192519 239.61507 136.714111 240.73679 137.835831 
C 241.85851 138.957551 243.380103 139.587816 244.966455 139.587816 
z
" style="fill:#3b528b;stroke:#3b528b;"/>
    <path clip-path="url(#pdd74cebd3e)" d="M 262.7241 61.705723 
C 264.88225 61.705723 266.952297 60.848281 268.478339 59.322239 
C 270.004382 57.796197 270.861823 55.726149 270.861823 53.568 
C 270.861823 51.409851 270.004382 49.339803 268.478339 47.813761 
C 266.952297 46.287719 264.88225 45.430277 262.7241 45.430277 
C 260.565951 45.430277 258.495903 46.287719 256.969861 47.813761 
C 255.443819 49.339803 254.586377 51.409851 254.586377 53.568 
C 254.586377 55.726149 255.443819 57.796197 256.969861 59.322239 
C 258.495903 60.848281 260.565951 61.705723 262.7241 61.705723 
z
" style="fill:#20928c;stroke:#20928c;"/>
    <path clip-path="url(#pdd74cebd3e)" d="M 359.009655 139.544404 
C 362.127184 139.544404 365.117446 138.305796 367.321872 136.101371 
C 369.526298 133.896945 370.764905 130.906683 370.764905 127.789154 
C 370.764905 124.671626 369.526298 121.681363 367.321872 119.476938 
C 365.117446 117.272512 362.127184 116.033905 359.009655 116.033905 
C 355.892127 116.033905 352.901865 117.272512 350.697439 119.476938 
C 348.493013 121.681363 347.254406 124.671626 347.254406 127.789154 
C 347.254406 130.906683 348.493013 133.896945 350.697439 136.101371 
C 352.901865 138.305796 355.892127 139.544404 359.009655 139.544404 
z
" style="fill:#482576;stroke:#482576;"/>
    <path clip-path="url(#pdd74cebd3e)" d="M 162.133245 64.697835 
C 163.385521 64.697835 164.586675 64.200301 165.472168 63.314808 
C 166.357661 62.429315 166.855195 61.228161 166.855195 59.975885 
C 166.855195 58.723609 166.357661 57.522454 165.472168 56.636962 
C 164.586675 55.751469 163.385521 55.253934 162.133245 55.253934 
C 160.880969 55.253934 159.679814 55.751469 158.794322 56.636962 
C 157.908829 57.522454 157.411294 58.723609 157.411294 59.975885 
C 157.411294 61.228161 157.908829 62.429315 158.794322 63.314808 
C 159.679814 64.200301 160.880969 64.697835 162.133245 64.697835 
z
" style="fill:#8ed645;stroke:#8ed645;"/>
    <path clip-path="url(#pdd74cebd3e)" d="M 333.533738 306.749606 
C 336.520351 306.749606 339.385042 305.563012 341.496896 303.451158 
C 343.60875 301.339304 344.795344 298.474613 344.795344 295.488 
C 344.795344 292.501387 343.60875 289.636696 341.496896 287.524842 
C 339.385042 285.412988 336.520351 284.226394 333.533738 284.226394 
C 330.547125 284.226394 327.682434 285.412988 325.57058 287.524842 
C 323.458726 289.636696 322.272132 292.501387 322.272132 295.488 
C 322.272132 298.474613 323.458726 301.339304 325.57058 303.451158 
C 327.682434 305.563012 330.547125 306.749606 333.533738 306.749606 
z
" style="fill:#58c765;stroke:#58c765;"/>
    <path clip-path="url(#pdd74cebd3e)" d="M 94.369512 124.37244 
C 97.892793 124.37244 101.272244 122.972625 103.76358 120.481289 
C 106.254917 117.989953 107.654731 114.610502 107.654731 111.087221 
C 107.654731 107.563939 106.254917 104.184488 103.76358 101.693152 
C 101.272244 99.201816 97.892793 97.802002 94.369512 97.802002 
C 90.846231 97.802002 87.466779 99.201816 84.975443 101.693152 
C 82.484107 104.184488 81.084293 107.563939 81.084293 111.087221 
C 81.084293 114.610502 82.484107 117.989953 84.975443 120.481289 
C 87.466779 122.972625 90.846231 124.37244 94.369512 124.37244 
z
" style="fill:#3d4e8a;stroke:#3d4e8a;"/>
    <path clip-path="url(#pdd74cebd3e)" d="M 163.067652 142.685355 
C 166.742379 142.685355 170.267094 141.225371 172.865518 138.626946 
C 175.463942 136.028522 176.923926 132.503808 176.923926 128.829081 
C 176.923926 125.154354 175.463942 121.62964 172.865518 119.031216 
C 170.267094 116.432792 166.742379 114.972807 163.067652 114.972807 
C 159.392926 114.972807 155.868211 116.432792 153.269787 119.031216 
C 150.671363 121.62964 149.211378 125.154354 149.211378 128.829081 
C 149.211378 132.503808 150.671363 136.028522 153.269787 138.626946 
C 155.868211 141.225371 159.392926 142.685355 163.067652 142.685355 
z
" style="fill:#440154;stroke:#440154;"/>
    <path clip-path="url(#pdd74cebd3e)" d="M 129.595764 198.767702 
C 133.758783 198.767702 137.751856 197.113717 140.695555 194.170018 
C 143.639254 191.226319 145.293239 187.233247 145.293239 183.070228 
C 145.293239 178.907209 143.639254 174.914136 140.695555 171.970437 
C 137.751856 169.026738 133.758783 167.372753 129.595764 167.372753 
C 125.432745 167.372753 121.439672 169.026738 118.495973 171.970437 
C 115.552275 174.914136 113.89829 178.907209 113.89829 183.070228 
C 113.89829 187.233247 115.552275 191.226319 118.495973 194.170018 
C 121.439672 197.113717 125.432745 198.767702 129.595764 198.767702 
z
" style="fill:#56c667;stroke:#56c667;"/>
    <path clip-path="url(#pdd74cebd3e)" d="M 391.174867 82.101549 
C 395.346771 82.101549 399.348365 80.444034 402.298346 77.494053 
C 405.248327 74.544072 406.905842 70.542477 406.905842 66.370574 
C 406.905842 62.198671 405.248327 58.197076 402.298346 55.247095 
C 399.348365 52.297114 395.346771 50.639599 391.174867 50.639599 
C 387.002964 50.639599 383.001369 52.297114 380.051388 55.247095 
C 377.101407 58.197076 375.443893 62.198671 375.443893 66.370574 
C 375.443893 70.542477 377.101407 74.544072 380.051388 77.494053 
C 383.001369 80.444034 387.002964 82.101549 391.174867 82.101549 
z
" style="fill:#277e8e;stroke:#277e8e;"/>
    <path clip-path="url(#pdd74cebd3e)" d="M 258.323698 101.748743 
C 261.25231 101.748743 264.061369 100.585193 266.13221 98.514351 
C 268.203052 96.443509 269.366602 93.634451 269.366602 90.705839 
C 269.366602 87.777226 268.203052 84.968168 266.13221 82.897326 
C 264.061369 80.826485 261.25231 79.662935 258.323698 79.662935 
C 255.395086 79.662935 252.586027 80.826485 250.515186 82.897326 
C 248.444344 84.968168 247.280794 87.777226 247.280794 90.705839 
C 247.280794 93.634451 248.444344 96.443509 250.515186 98.514351 
C 252.586027 100.585193 255.395086 101.748743 258.323698 101.748743 
z
" style="fill:#2c718e;stroke:#2c718e;"/>
    <path clip-path="url(#pdd74cebd3e)" d="M 317.425186 70.22316 
C 321.238288 70.22316 324.895727 68.708199 327.591997 66.01193 
C 330.288267 63.31566 331.803228 59.65822 331.803228 55.845119 
C 331.803228 52.032018 330.288267 48.374578 327.591997 45.678308 
C 324.895727 42.982039 321.238288 41.467077 317.425186 41.467077 
C 313.612085 41.467077 309.954646 42.982039 307.258376 45.678308 
C 304.562106 48.374578 303.047145 52.032018 303.047145 55.845119 
C 303.047145 59.65822 304.562106 63.31566 307.258376 66.01193 
C 309.954646 68.708199 313.612085 70.22316 317.425186 70.22316 
z
" style="fill:#433e85;stroke:#433e85;"/>
    <path clip-path="url(#pdd74cebd3e)" d="M 228.927436 272.927719 
C 231.791738 272.927719 234.539112 271.78972 236.564479 269.764352 
C 238.589846 267.738985 239.727846 264.991612 239.727846 262.127309 
C 239.727846 259.263007 238.589846 256.515634 236.564479 254.490267 
C 234.539112 252.464899 231.791738 251.3269 228.927436 251.3269 
C 226.063134 251.3269 223.315761 252.464899 221.290394 254.490267 
C 219.265026 256.515634 218.127027 259.263007 218.127027 262.127309 
C 218.127027 264.991612 219.265026 267.738985 221.290394 269.764352 
C 223.315761 271.78972 226.063134 272.927719 228.927436 272.927719 
z
" style="fill:#dfe318;stroke:#dfe318;"/>
    <path clip-path="url(#pdd74cebd3e)" d="M 107.19419 119.099472 
C 111.20136 119.099472 115.044946 117.507407 117.878444 114.673909 
C 120.711941 111.840412 122.304007 107.996826 122.304007 103.989655 
C 122.304007 99.982485 120.711941 96.138899 117.878444 93.305401 
C 115.044946 90.471904 111.20136 88.879838 107.19419 88.879838 
C 103.187019 88.879838 99.343433 90.471904 96.509935 93.305401 
C 93.676438 96.138899 92.084373 99.982485 92.084373 103.989655 
C 92.084373 107.996826 93.676438 111.840412 96.509935 114.673909 
C 99.343433 117.507407 103.187019 119.099472 107.19419 119.099472 
z
" style="fill:#d5e21a;stroke:#d5e21a;"/>
    <path clip-path="url(#pdd74cebd3e)" d="M 153.567393 220.053702 
C 156.52825 220.053702 159.368236 218.877341 161.461877 216.7837 
C 163.555519 214.690058 164.731879 211.850072 164.731879 208.889216 
C 164.731879 205.92836 163.555519 203.088374 161.461877 200.994732 
C 159.368236 198.90109 156.52825 197.72473 153.567393 197.72473 
C 150.606537 197.72473 147.766551 198.90109 145.672909 200.994732 
C 143.579268 203.088374 142.402907 205.92836 142.402907 208.889216 
C 142.402907 211.850072 143.579268 214.690058 145.672909 216.7837 
C 147.766551 218.877341 150.606537 220.053702 153.567393 220.053702 
z
" style="fill:#2fb47c;stroke:#2fb47c;"/>
    <path clip-path="url(#pdd74cebd3e)" d="M 165.448681 223.150519 
C 165.753059 223.150519 166.045011 223.029588 166.260239 222.814361 
C 166.475466 222.599133 166.596397 222.307181 166.596397 222.002803 
C 166.596397 221.698425 166.475466 221.406473 166.260239 221.191245 
C 166.045011 220.976017 165.753059 220.855087 165.448681 220.855087 
C 165.144303 220.855087 164.852351 220.976017 164.637123 221.191245 
C 164.421895 221.406473 164.300965 221.698425 164.300965 222.002803 
C 164.300965 222.307181 164.421895 222.599133 164.637123 222.814361 
C 164.852351 223.029588 165.144303 223.150519 165.448681 223.150519 
z
" style="fill:#fde725;stroke:#fde725;"/>
    <path clip-path="url(#pdd74cebd3e)" d="M 192.297387 252.046343 
C 193.731093 252.046343 195.106271 251.476726 196.120054 250.462943 
C 197.133837 249.44916 197.703454 248.073982 197.703454 246.640276 
C 197.703454 245.20657 197.133837 243.831392 196.120054 242.817609 
C 195.106271 241.803826 193.731093 241.234209 192.297387 241.234209 
C 190.863681 241.234209 189.488503 241.803826 188.47472 242.817609 
C 187.460937 243.831392 186.89132 245.20657 186.89132 246.640276 
C 186.89132 248.073982 187.460937 249.44916 188.47472 250.462943 
C 189.488503 251.476726 190.863681 252.046343 192.297387 252.046343 
z
" style="fill:#440154;stroke:#440154;"/>
    <path clip-path="url(#pdd74cebd3e)" d="M 389.355112 257.270279 
C 392.641311 257.270279 395.793359 255.964658 398.117053 253.640964 
C 400.440747 251.31727 401.746368 248.165222 401.746368 244.879022 
C 401.746368 241.592823 400.440747 238.440775 398.117053 236.117081 
C 395.793359 233.793387 392.641311 232.487766 389.355112 232.487766 
C 386.068912 232.487766 382.916864 233.793387 380.59317 236.117081 
C 378.269476 238.440775 376.963855 241.592823 376.963855 244.879022 
C 376.963855 248.165222 378.269476 251.31727 380.59317 253.640964 
C 382.916864 255.964658 386.068912 257.270279 389.355112 257.270279 
z
" style="fill:#31b57b;stroke:#31b57b;"/>
    <path clip-path="url(#pdd74cebd3e)" d="M 94.595234 209.926451 
C 97.70506 209.926451 100.687934 208.690905 102.886913 206.491926 
C 105.085892 204.292947 106.321439 201.310073 106.321439 198.200247 
C 106.321439 195.090421 105.085892 192.107547 102.886913 189.908568 
C 100.687934 187.709589 97.70506 186.474042 94.595234 186.474042 
C 91.485409 186.474042 88.502534 187.709589 86.303555 189.908568 
C 84.104577 192.107547 82.86903 195.090421 82.86903 198.200247 
C 82.86903 201.310073 84.104577 204.292947 86.303555 206.491926 
C 88.502534 208.690905 91.485409 209.926451 94.595234 209.926451 
z
" style="fill:#277e8e;stroke:#277e8e;"/>
    <path clip-path="url(#pdd74cebd3e)" d="M 84.894277 187.523889 
C 88.387987 187.523889 91.739074 186.135823 94.2095 183.665397 
C 96.679926 181.194971 98.067991 177.843884 98.067991 174.350174 
C 98.067991 170.856464 96.679926 167.505377 94.2095 165.034951 
C 91.739074 162.564525 88.387987 161.176459 84.894277 161.176459 
C 81.400567 161.176459 78.04948 162.564525 75.579054 165.034951 
C 73.108627 167.505377 71.720562 170.856464 71.720562 174.350174 
C 71.720562 177.843884 73.108627 181.194971 75.579054 183.665397 
C 78.04948 186.135823 81.400567 187.523889 84.894277 187.523889 
z
" style="fill:#470e61;stroke:#470e61;"/>
    <path clip-path="url(#pdd74cebd3e)" d="M 208.30699 291.92455 
C 209.443972 291.92455 210.53454 291.472822 211.338508 290.668854 
C 212.142475 289.864887 212.594203 288.774319 212.594203 287.637337 
C 212.594203 286.500355 212.142475 285.409787 211.338508 284.60582 
C 210.53454 283.801852 209.443972 283.350124 208.30699 283.350124 
C 207.170008 283.350124 206.07944 283.801852 205.275473 284.60582 
C 204.471505 285.409787 204.019777 286.500355 204.019777 287.637337 
C 204.019777 288.774319 204.471505 289.864887 205.275473 290.668854 
C 206.07944 291.472822 207.170008 291.92455 208.30699 291.92455 
z
" style="fill:#3c4f8a;stroke:#3c4f8a;"/>
    <path clip-path="url(#pdd74cebd3e)" d="M 375.039233 285.769575 
C 378.438121 285.769575 381.698258 284.419182 384.101635 282.015805 
C 386.505013 279.612427 387.855406 276.352291 387.855406 272.953402 
C 387.855406 269.554513 386.505013 266.294376 384.101635 263.890999 
C 381.698258 261.487622 378.438121 260.137229 375.039233 260.137229 
C 371.640344 260.137229 368.380207 261.487622 365.97683 263.890999 
C 363.573453 266.294376 362.22306 269.554513 362.22306 272.953402 
C 362.22306 276.352291 363.573453 279.612427 365.97683 282.015805 
C 368.380207 284.419182 371.640344 285.769575 375.039233 285.769575 
z
" style="fill:#20a386;stroke:#20a386;"/>
    <path clip-path="url(#pdd74cebd3e)" d="M 163.662084 294.710067 
C 165.401124 294.710067 167.069172 294.019138 168.29886 292.789451 
C 169.528547 291.559764 170.219475 289.891715 170.219475 288.152675 
C 170.219475 286.413634 169.528547 284.745586 168.29886 283.515899 
C 167.069172 282.286211 165.401124 281.595283 163.662084 281.595283 
C 161.923043 281.595283 160.254995 282.286211 159.025307 283.515899 
C 157.79562 284.745586 157.104692 286.413634 157.104692 288.152675 
C 157.104692 289.891715 157.79562 291.559764 159.025307 292.789451 
C 160.254995 294.019138 161.923043 294.710067 163.662084 294.710067 
z
" style="fill:#1fa088;stroke:#1fa088;"/>
    <path clip-path="url(#pdd74cebd3e)" d="M 395.986765 291.240723 
C 399.756438 291.240723 403.372222 289.743016 406.037783 287.077455 
C 408.703344 284.411894 410.201051 280.79611 410.201051 277.026438 
C 410.201051 273.256765 408.703344 269.640981 406.037783 266.97542 
C 403.372222 264.309859 399.756438 262.812152 395.986765 262.812152 
C 392.217093 262.812152 388.601309 264.309859 385.935748 266.97542 
C 383.270187 269.640981 381.77248 273.256765 381.77248 277.026438 
C 381.77248 280.79611 383.270187 284.411894 385.935748 287.077455 
C 388.601309 289.743016 392.217093 291.240723 395.986765 291.240723 
z
" style="fill:#6ccd5a;stroke:#6ccd5a;"/>
    <path clip-path="url(#pdd74cebd3e)" d="M 212.256289 232.375268 
C 214.031333 232.375268 215.733914 231.670036 216.989059 230.41489 
C 218.244205 229.159745 218.949437 227.457163 218.949437 225.682119 
C 218.949437 223.907076 218.244205 222.204494 216.989059 220.949349 
C 215.733914 219.694203 214.031333 218.988971 212.256289 218.988971 
C 210.481245 218.988971 208.778664 219.694203 207.523518 220.949349 
C 206.268373 222.204494 205.56314 223.907076 205.56314 225.682119 
C 205.56314 227.457163 206.268373 229.159745 207.523518 230.41489 
C 208.778664 231.670036 210.481245 232.375268 212.256289 232.375268 
z
" style="fill:#482374;stroke:#482374;"/>
    <path clip-path="url(#pdd74cebd3e)" d="M 212.083617 132.246107 
C 215.911187 132.246107 219.582505 130.725397 222.289006 128.018896 
C 224.995506 125.312396 226.516216 121.641078 226.516216 117.813508 
C 226.516216 113.985938 224.995506 110.31462 222.289006 107.608119 
C 219.582505 104.901618 215.911187 103.380908 212.083617 103.380908 
C 208.256047 103.380908 204.584729 104.901618 201.878228 107.608119 
C 199.171727 110.31462 197.651018 113.985938 197.651018 117.813508 
C 197.651018 121.641078 199.171727 125.312396 201.878228 128.018896 
C 204.584729 130.725397 208.256047 132.246107 212.083617 132.246107 
z
" style="fill:#7cd250;stroke:#7cd250;"/>
    <path clip-path="url(#pdd74cebd3e)" d="M 285.663667 111.450962 
C 288.640824 111.450962 291.496444 110.268125 293.601611 108.162958 
C 295.706779 106.057791 296.889615 103.20217 296.889615 100.225014 
C 296.889615 97.247858 295.706779 94.392238 293.601611 92.287071 
C 291.496444 90.181903 288.640824 88.999067 285.663667 88.999067 
C 282.686511 88.999067 279.830891 90.181903 277.725724 92.287071 
C 275.620556 94.392238 274.43772 97.247858 274.43772 100.225014 
C 274.43772 103.20217 275.620556 106.057791 277.725724 108.162958 
C 279.830891 110.268125 282.686511 111.450962 285.663667 111.450962 
z
" style="fill:#453882;stroke:#453882;"/>
    <path clip-path="url(#pdd74cebd3e)" d="M 382.291602 133.167636 
C 385.596976 133.167636 388.767416 131.854396 391.104668 129.517144 
C 393.441921 127.179891 394.75516 124.009451 394.75516 120.704077 
C 394.75516 117.398703 393.441921 114.228263 391.104668 111.891011 
C 388.767416 109.553758 385.596976 108.240519 382.291602 108.240519 
C 378.986227 108.240519 375.815788 109.553758 373.478535 111.891011 
C 371.141282 114.228263 369.828043 117.398703 369.828043 120.704077 
C 369.828043 124.009451 371.141282 127.179891 373.478535 129.517144 
C 375.815788 131.854396 378.986227 133.167636 382.291602 133.167636 
z
" style="fill:#375a8c;stroke:#375a8c;"/>
    <path clip-path="url(#pdd74cebd3e)" d="M 356.882307 250.336818 
C 359.238452 250.336818 361.498412 249.400711 363.164458 247.734665 
C 364.830504 246.068619 365.766611 243.808659 365.766611 241.452514 
C 365.766611 239.096369 364.830504 236.836408 363.164458 235.170362 
C 361.498412 233.504316 359.238452 232.56821 356.882307 232.56821 
C 354.526162 232.56821 352.266201 233.504316 350.600155 235.170362 
C 348.934109 236.836408 347.998003 239.096369 347.998003 241.452514 
C 347.998003 243.808659 348.934109 246.068619 350.600155 247.734665 
C 352.266201 249.400711 354.526162 250.336818 356.882307 250.336818 
z
" style="fill:#3f4788;stroke:#3f4788;"/>
    <path clip-path="url(#pdd74cebd3e)" d="M 212.49851 262.517314 
C 216.504597 262.517314 220.347145 260.925679 223.179877 258.092947 
C 226.012609 255.260216 227.604244 251.417668 227.604244 247.41158 
C 227.604244 243.405492 226.012609 239.562945 223.179877 236.730213 
C 220.347145 233.897481 216.504597 232.305846 212.49851 232.305846 
C 208.492422 232.305846 204.649874 233.897481 201.817143 236.730213 
C 198.984411 239.562945 197.392776 243.405492 197.392776 247.41158 
C 197.392776 251.417668 198.984411 255.260216 201.817143 258.092947 
C 204.649874 260.925679 208.492422 262.517314 212.49851 262.517314 
z
" style="fill:#23888e;stroke:#23888e;"/>
    <path clip-path="url(#pdd74cebd3e)" d="M 146.473678 251.553892 
C 150.196306 251.553892 153.766965 250.074877 156.399261 247.442581 
C 159.031556 244.810286 160.510572 241.239626 160.510572 237.516998 
C 160.510572 233.794371 159.031556 230.223711 156.399261 227.591416 
C 153.766965 224.95912 150.196306 223.480104 146.473678 223.480104 
C 142.75105 223.480104 139.18039 224.95912 136.548095 227.591416 
C 133.915799 230.223711 132.436784 233.794371 132.436784 237.516998 
C 132.436784 241.239626 133.915799 244.810286 136.548095 247.442581 
C 139.18039 250.074877 142.75105 251.553892 146.473678 251.553892 
z
" style="fill:#471063;stroke:#471063;"/>
   </g>
   <g id="matplotlib.axis_1">
    <g id="xtick_1">
     <g id="line2d_1">
      <defs>
       <path d="M 0 0 
L 0 3.5 
" id="m4fe78bd544" style="stroke:#000000;stroke-width:0.8;"/>
      </defs>
      <g>
       <use style="stroke:#000000;stroke-width:0.8;" x="123.808489" xlink:href="#m4fe78bd544" y="307.584"/>
      </g>
     </g>
     <g id="text_1">
      <!-- 0.2 -->
      <g transform="translate(115.856927 322.182437)scale(0.1 -0.1)">
       <defs>
        <path d="M 31.78125 66.40625 
Q 24.171875 66.40625 20.328125 58.90625 
Q 16.5 51.421875 16.5 36.375 
Q 16.5 21.390625 20.328125 13.890625 
Q 24.171875 6.390625 31.78125 6.390625 
Q 39.453125 6.390625 43.28125 13.890625 
Q 47.125 21.390625 47.125 36.375 
Q 47.125 51.421875 43.28125 58.90625 
Q 39.453125 66.40625 31.78125 66.40625 
z
M 31.78125 74.21875 
Q 44.046875 74.21875 50.515625 64.515625 
Q 56.984375 54.828125 56.984375 36.375 
Q 56.984375 17.96875 50.515625 8.265625 
Q 44.046875 -1.421875 31.78125 -1.421875 
Q 19.53125 -1.421875 13.0625 8.265625 
Q 6.59375 17.96875 6.59375 36.375 
Q 6.59375 54.828125 13.0625 64.515625 
Q 19.53125 74.21875 31.78125 74.21875 
z
" id="DejaVuSans-48"/>
        <path d="M 10.6875 12.40625 
L 21 12.40625 
L 21 0 
L 10.6875 0 
z
" id="DejaVuSans-46"/>
        <path d="M 19.1875 8.296875 
L 53.609375 8.296875 
L 53.609375 0 
L 7.328125 0 
L 7.328125 8.296875 
Q 12.9375 14.109375 22.625 23.890625 
Q 32.328125 33.6875 34.8125 36.53125 
Q 39.546875 41.84375 41.421875 45.53125 
Q 43.3125 49.21875 43.3125 52.78125 
Q 43.3125 58.59375 39.234375 62.25 
Q 35.15625 65.921875 28.609375 65.921875 
Q 23.96875 65.921875 18.8125 64.3125 
Q 13.671875 62.703125 7.8125 59.421875 
L 7.8125 69.390625 
Q 13.765625 71.78125 18.9375 73 
Q 24.125 74.21875 28.421875 74.21875 
Q 39.75 74.21875 46.484375 68.546875 
Q 53.21875 62.890625 53.21875 53.421875 
Q 53.21875 48.921875 51.53125 44.890625 
Q 49.859375 40.875 45.40625 35.40625 
Q 44.1875 33.984375 37.640625 27.21875 
Q 31.109375 20.453125 19.1875 8.296875 
z
" id="DejaVuSans-50"/>
       </defs>
       <use xlink:href="#DejaVuSans-48"/>
       <use x="63.623047" xlink:href="#DejaVuSans-46"/>
       <use x="95.410156" xlink:href="#DejaVuSans-50"/>
      </g>
     </g>
    </g>
    <g id="xtick_2">
     <g id="line2d_2">
      <g>
       <use style="stroke:#000000;stroke-width:0.8;" x="193.981553" xlink:href="#m4fe78bd544" y="307.584"/>
      </g>
     </g>
     <g id="text_2">
      <!-- 0.4 -->
      <g transform="translate(186.02999 322.182437)scale(0.1 -0.1)">
       <defs>
        <path d="M 37.796875 64.3125 
L 12.890625 25.390625 
L 37.796875 25.390625 
z
M 35.203125 72.90625 
L 47.609375 72.90625 
L 47.609375 25.390625 
L 58.015625 25.390625 
L 58.015625 17.1875 
L 47.609375 17.1875 
L 47.609375 0 
L 37.796875 0 
L 37.796875 17.1875 
L 4.890625 17.1875 
L 4.890625 26.703125 
z
" id="DejaVuSans-52"/>
       </defs>
       <use xlink:href="#DejaVuSans-48"/>
       <use x="63.623047" xlink:href="#DejaVuSans-46"/>
       <use x="95.410156" xlink:href="#DejaVuSans-52"/>
      </g>
     </g>
    </g>
    <g id="xtick_3">
     <g id="line2d_3">
      <g>
       <use style="stroke:#000000;stroke-width:0.8;" x="264.154616" xlink:href="#m4fe78bd544" y="307.584"/>
      </g>
     </g>
     <g id="text_3">
      <!-- 0.6 -->
      <g transform="translate(256.203054 322.182437)scale(0.1 -0.1)">
       <defs>
        <path d="M 33.015625 40.375 
Q 26.375 40.375 22.484375 35.828125 
Q 18.609375 31.296875 18.609375 23.390625 
Q 18.609375 15.53125 22.484375 10.953125 
Q 26.375 6.390625 33.015625 6.390625 
Q 39.65625 6.390625 43.53125 10.953125 
Q 47.40625 15.53125 47.40625 23.390625 
Q 47.40625 31.296875 43.53125 35.828125 
Q 39.65625 40.375 33.015625 40.375 
z
M 52.59375 71.296875 
L 52.59375 62.3125 
Q 48.875 64.0625 45.09375 64.984375 
Q 41.3125 65.921875 37.59375 65.921875 
Q 27.828125 65.921875 22.671875 59.328125 
Q 17.53125 52.734375 16.796875 39.40625 
Q 19.671875 43.65625 24.015625 45.921875 
Q 28.375 48.1875 33.59375 48.1875 
Q 44.578125 48.1875 50.953125 41.515625 
Q 57.328125 34.859375 57.328125 23.390625 
Q 57.328125 12.15625 50.6875 5.359375 
Q 44.046875 -1.421875 33.015625 -1.421875 
Q 20.359375 -1.421875 13.671875 8.265625 
Q 6.984375 17.96875 6.984375 36.375 
Q 6.984375 53.65625 15.1875 63.9375 
Q 23.390625 74.21875 37.203125 74.21875 
Q 40.921875 74.21875 44.703125 73.484375 
Q 48.484375 72.75 52.59375 71.296875 
z
" id="DejaVuSans-54"/>
       </defs>
       <use xlink:href="#DejaVuSans-48"/>
       <use x="63.623047" xlink:href="#DejaVuSans-46"/>
       <use x="95.410156" xlink:href="#DejaVuSans-54"/>
      </g>
     </g>
    </g>
    <g id="xtick_4">
     <g id="line2d_4">
      <g>
       <use style="stroke:#000000;stroke-width:0.8;" x="334.32768" xlink:href="#m4fe78bd544" y="307.584"/>
      </g>
     </g>
     <g id="text_4">
      <!-- 0.8 -->
      <g transform="translate(326.376117 322.182437)scale(0.1 -0.1)">
       <defs>
        <path d="M 31.78125 34.625 
Q 24.75 34.625 20.71875 30.859375 
Q 16.703125 27.09375 16.703125 20.515625 
Q 16.703125 13.921875 20.71875 10.15625 
Q 24.75 6.390625 31.78125 6.390625 
Q 38.8125 6.390625 42.859375 10.171875 
Q 46.921875 13.96875 46.921875 20.515625 
Q 46.921875 27.09375 42.890625 30.859375 
Q 38.875 34.625 31.78125 34.625 
z
M 21.921875 38.8125 
Q 15.578125 40.375 12.03125 44.71875 
Q 8.5 49.078125 8.5 55.328125 
Q 8.5 64.0625 14.71875 69.140625 
Q 20.953125 74.21875 31.78125 74.21875 
Q 42.671875 74.21875 48.875 69.140625 
Q 55.078125 64.0625 55.078125 55.328125 
Q 55.078125 49.078125 51.53125 44.71875 
Q 48 40.375 41.703125 38.8125 
Q 48.828125 37.15625 52.796875 32.3125 
Q 56.78125 27.484375 56.78125 20.515625 
Q 56.78125 9.90625 50.3125 4.234375 
Q 43.84375 -1.421875 31.78125 -1.421875 
Q 19.734375 -1.421875 13.25 4.234375 
Q 6.78125 9.90625 6.78125 20.515625 
Q 6.78125 27.484375 10.78125 32.3125 
Q 14.796875 37.15625 21.921875 38.8125 
z
M 18.3125 54.390625 
Q 18.3125 48.734375 21.84375 45.5625 
Q 25.390625 42.390625 31.78125 42.390625 
Q 38.140625 42.390625 41.71875 45.5625 
Q 45.3125 48.734375 45.3125 54.390625 
Q 45.3125 60.0625 41.71875 63.234375 
Q 38.140625 66.40625 31.78125 66.40625 
Q 25.390625 66.40625 21.84375 63.234375 
Q 18.3125 60.0625 18.3125 54.390625 
z
" id="DejaVuSans-56"/>
       </defs>
       <use xlink:href="#DejaVuSans-48"/>
       <use x="63.623047" xlink:href="#DejaVuSans-46"/>
       <use x="95.410156" xlink:href="#DejaVuSans-56"/>
      </g>
     </g>
    </g>
    <g id="xtick_5">
     <g id="line2d_5">
      <g>
       <use style="stroke:#000000;stroke-width:0.8;" x="404.500743" xlink:href="#m4fe78bd544" y="307.584"/>
      </g>
     </g>
     <g id="text_5">
      <!-- 1.0 -->
      <g transform="translate(396.549181 322.182437)scale(0.1 -0.1)">
       <defs>
        <path d="M 12.40625 8.296875 
L 28.515625 8.296875 
L 28.515625 63.921875 
L 10.984375 60.40625 
L 10.984375 69.390625 
L 28.421875 72.90625 
L 38.28125 72.90625 
L 38.28125 8.296875 
L 54.390625 8.296875 
L 54.390625 0 
L 12.40625 0 
z
" id="DejaVuSans-49"/>
       </defs>
       <use xlink:href="#DejaVuSans-49"/>
       <use x="63.623047" xlink:href="#DejaVuSans-46"/>
       <use x="95.410156" xlink:href="#DejaVuSans-48"/>
      </g>
     </g>
    </g>
   </g>
   <g id="matplotlib.axis_2">
    <g id="ytick_1">
     <g id="line2d_6">
      <defs>
       <path d="M 0 0 
L -3.5 0 
" id="mec7da6201a" style="stroke:#000000;stroke-width:0.8;"/>
      </defs>
      <g>
       <use style="stroke:#000000;stroke-width:0.8;" x="57.6" xlink:href="#mec7da6201a" y="297.805007"/>
      </g>
     </g>
     <g id="text_6">
      <!-- 0.0 -->
      <g transform="translate(34.696875 301.604226)scale(0.1 -0.1)">
       <use xlink:href="#DejaVuSans-48"/>
       <use x="63.623047" xlink:href="#DejaVuSans-46"/>
       <use x="95.410156" xlink:href="#DejaVuSans-48"/>
      </g>
     </g>
    </g>
    <g id="ytick_2">
     <g id="line2d_7">
      <g>
       <use style="stroke:#000000;stroke-width:0.8;" x="57.6" xlink:href="#mec7da6201a" y="246.288836"/>
      </g>
     </g>
     <g id="text_7">
      <!-- 0.2 -->
      <g transform="translate(34.696875 250.088055)scale(0.1 -0.1)">
       <use xlink:href="#DejaVuSans-48"/>
       <use x="63.623047" xlink:href="#DejaVuSans-46"/>
       <use x="95.410156" xlink:href="#DejaVuSans-50"/>
      </g>
     </g>
    </g>
    <g id="ytick_3">
     <g id="line2d_8">
      <g>
       <use style="stroke:#000000;stroke-width:0.8;" x="57.6" xlink:href="#mec7da6201a" y="194.772665"/>
      </g>
     </g>
     <g id="text_8">
      <!-- 0.4 -->
      <g transform="translate(34.696875 198.571883)scale(0.1 -0.1)">
       <use xlink:href="#DejaVuSans-48"/>
       <use x="63.623047" xlink:href="#DejaVuSans-46"/>
       <use x="95.410156" xlink:href="#DejaVuSans-52"/>
      </g>
     </g>
    </g>
    <g id="ytick_4">
     <g id="line2d_9">
      <g>
       <use style="stroke:#000000;stroke-width:0.8;" x="57.6" xlink:href="#mec7da6201a" y="143.256493"/>
      </g>
     </g>
     <g id="text_9">
      <!-- 0.6 -->
      <g transform="translate(34.696875 147.055712)scale(0.1 -0.1)">
       <use xlink:href="#DejaVuSans-48"/>
       <use x="63.623047" xlink:href="#DejaVuSans-46"/>
       <use x="95.410156" xlink:href="#DejaVuSans-54"/>
      </g>
     </g>
    </g>
    <g id="ytick_5">
     <g id="line2d_10">
      <g>
       <use style="stroke:#000000;stroke-width:0.8;" x="57.6" xlink:href="#mec7da6201a" y="91.740322"/>
      </g>
     </g>
     <g id="text_10">
      <!-- 0.8 -->
      <g transform="translate(34.696875 95.539541)scale(0.1 -0.1)">
       <use xlink:href="#DejaVuSans-48"/>
       <use x="63.623047" xlink:href="#DejaVuSans-46"/>
       <use x="95.410156" xlink:href="#DejaVuSans-56"/>
      </g>
     </g>
    </g>
   </g>
   <g id="patch_3">
    <path d="M 57.6 307.584 
L 57.6 41.472 
" style="fill:none;stroke:#000000;stroke-linecap:square;stroke-linejoin:miter;stroke-width:0.8;"/>
   </g>
   <g id="patch_4">
    <path d="M 414.72 307.584 
L 414.72 41.472 
" style="fill:none;stroke:#000000;stroke-linecap:square;stroke-linejoin:miter;stroke-width:0.8;"/>
   </g>
   <g id="patch_5">
    <path d="M 57.6 307.584 
L 414.72 307.584 
" style="fill:none;stroke:#000000;stroke-linecap:square;stroke-linejoin:miter;stroke-width:0.8;"/>
   </g>
   <g id="patch_6">
    <path d="M 57.6 41.472 
L 414.72 41.472 
" style="fill:none;stroke:#000000;stroke-linecap:square;stroke-linejoin:miter;stroke-width:0.8;"/>
   </g>
  </g>
 </g>
 <defs>
  <clipPath id="pdd74cebd3e">
   <rect height="266.112" width="357.12" x="57.6" y="41.472"/>
  </clipPath>
 </defs>
</svg>
